<svg xmlns="http://www.w3.org/2000/svg" viewBox="0 0 100 100">
  <!-- Glowing effect definitions -->
  <defs>
    <filter id="glow">
      <feGaussianBlur stdDeviation="2" result="coloredBlur"/>
      <feMerge>
        <feMergeNode in="coloredBlur"/>
        <feMergeNode in="SourceGraphic"/>
      </feMerge>
    </filter>
  </defs>

  <!-- Main cube structure with glow -->
  <g filter="url(#glow)">
    <!-- Front face vertices -->
    <circle cx="20" cy="20" r="6" fill="#00BFFF"/>
    <circle cx="80" cy="20" r="6" fill="#00BFFF"/>
    <circle cx="20" cy="80" r="6" fill="#00BFFF"/>
    <circle cx="80" cy="80" r="6" fill="#00BFFF"/>
    
    <!-- Back face vertices -->
    <circle cx="40" cy="5" r="6" fill="#00BFFF"/>
    <circle cx="95" cy="5" r="6" fill="#00BFFF"/>
    <circle cx="40" cy="65" r="6" fill="#00BFFF"/>
    <circle cx="95" cy="65" r="6" fill="#00BFFF"/>
  </g>

  <!-- Bold connections -->
  <g filter="url(#glow)">
    <!-- Front face -->
    <path d="M20 20 L80 20" stroke="#00BFFF" stroke-width="4" opacity="1"/>
    <path d="M20 20 L20 80" stroke="#00BFFF" stroke-width="4" opacity="1"/>
    <path d="M80 20 L80 80" stroke="#00BFFF" stroke-width="4" opacity="1"/>
    <path d="M20 80 L80 80" stroke="#00BFFF" stroke-width="4" opacity="1"/>
    
    <!-- Back face -->
    <path d="M40 5 L95 5" stroke="#00BFFF" stroke-width="4" opacity="0.9"/>
    <path d="M40 5 L40 65" stroke="#00BFFF" stroke-width="4" opacity="0.9"/>
    <path d="M95 5 L95 65" stroke="#00BFFF" stroke-width="4" opacity="0.9"/>
    <path d="M40 65 L95 65" stroke="#00BFFF" stroke-width="4" opacity="0.9"/>
    
    <!-- Connecting edges -->
    <path d="M20 20 L40 5" stroke="#00BFFF" stroke-width="4" opacity="0.9"/>
    <path d="M80 20 L95 5" stroke="#00BFFF" stroke-width="4" opacity="0.9"/>
    <path d="M20 80 L40 65" stroke="#00BFFF" stroke-width="4" opacity="0.9"/>
    <path d="M80 80 L95 65" stroke="#00BFFF" stroke-width="4" opacity="0.9"/>
  </g>

  <!-- Accent particles with strong glow -->
  <g filter="url(#glow)">
    <circle cx="50" cy="35" r="4" fill="#FFFFFF">
      <animate attributeName="opacity" values="1;0.5;1" dur="2s" repeatCount="indefinite"/>
    </circle>
    <circle cx="65" cy="45" r="4" fill="#FFFFFF">
      <animate attributeName="opacity" values="0.5;1;0.5" dur="2.5s" repeatCount="indefinite"/>
    </circle>
    <circle cx="35" cy="50" r="4" fill="#FFFFFF">
      <animate attributeName="opacity" values="0.7;1;0.7" dur="1.8s" repeatCount="indefinite"/>
    </circle>
  </g>

  <!-- Accent connections with glow -->
  <g filter="url(#glow)">
    <path d="M50 35 L65 45" stroke="#FFFFFF" stroke-width="2.5" opacity="0.8">
      <animate attributeName="opacity" values="0.8;0.4;0.8" dur="2s" repeatCount="indefinite"/>
    </path>
    <path d="M65 45 L35 50" stroke="#FFFFFF" stroke-width="2.5" opacity="0.8">
      <animate attributeName="opacity" values="0.4;0.8;0.4" dur="2.5s" repeatCount="indefinite"/>
    </path>
    <path d="M35 50 L50 35" stroke="#FFFFFF" stroke-width="2.5" opacity="0.8">
      <animate attributeName="opacity" values="0.6;1;0.6" dur="1.8s" repeatCount="indefinite"/>
    </path>
  </g>
</svg>