<svg xmlns="http://www.w3.org/2000/svg" viewBox="0 0 100 100">
  <!-- Multiple stacked glowing effects -->
  <defs>
    <filter id="superGlow" x="-50%" y="-50%" width="200%" height="200%">
      <feGaussianBlur stdDeviation="2" result="blur1"/>
      <feGaussianBlur stdDeviation="4" result="blur2"/>
      <feGaussianBlur stdDeviation="6" result="blur3"/>
      <feMerge>
        <feMergeNode in="blur3"/>
        <feMergeNode in="blur2"/>
        <feMergeNode in="blur1"/>
        <feMergeNode in="SourceGraphic"/>
      </feMerge>
    </filter>
  </defs>

  <!-- Background glow effect -->
  <rect x="0" y="0" width="100" height="100" fill="#001933" opacity="0.3" filter="url(#superGlow)"/>

  <!-- Main cube structure with intense glow -->
  <g filter="url(#superGlow)">
    <!-- Front face vertices - HUGE circles -->
    <circle cx="15" cy="15" r="12" fill="#00FFFF"/>
    <circle cx="85" cy="15" r="12" fill="#00FFFF"/>
    <circle cx="15" cy="85" r="12" fill="#00FFFF"/>
    <circle cx="85" cy="85" r="12" fill="#00FFFF"/>
    
    <!-- Back face vertices -->
    <circle cx="35" cy="5" r="12" fill="#00FFFF"/>
    <circle cx="95" cy="5" r="12" fill="#00FFFF"/>
    <circle cx="35" cy="65" r="12" fill="#00FFFF"/>
    <circle cx="95" cy="65" r="12" fill="#00FFFF"/>

    <!-- White core for extra pop -->
    <circle cx="15" cy="15" r="6" fill="white"/>
    <circle cx="85" cy="15" r="6" fill="white"/>
    <circle cx="15" cy="85" r="6" fill="white"/>
    <circle cx="85" cy="85" r="6" fill="white"/>
    <circle cx="35" cy="5" r="6" fill="white"/>
    <circle cx="95" cy="5" r="6" fill="white"/>
    <circle cx="35" cy="65" r="6" fill="white"/>
    <circle cx="95" cy="65" r="6" fill="white"/>
  </g>

  <!-- Super thick connections -->
  <g filter="url(#superGlow)">
    <!-- Front face -->
    <path d="M15 15 L85 15" stroke="#00FFFF" stroke-width="8" opacity="1"/>
    <path d="M15 15 L15 85" stroke="#00FFFF" stroke-width="8" opacity="1"/>
    <path d="M85 15 L85 85" stroke="#00FFFF" stroke-width="8" opacity="1"/>
    <path d="M15 85 L85 85" stroke="#00FFFF" stroke-width="8" opacity="1"/>
    
    <!-- Back face -->
    <path d="M35 5 L95 5" stroke="#00FFFF" stroke-width="8" opacity="1"/>
    <path d="M35 5 L35 65" stroke="#00FFFF" stroke-width="8" opacity="1"/>
    <path d="M95 5 L95 65" stroke="#00FFFF" stroke-width="8" opacity="1"/>
    <path d="M35 65 L95 65" stroke="#00FFFF" stroke-width="8" opacity="1"/>
    
    <!-- Connecting edges -->
    <path d="M15 15 L35 5" stroke="#00FFFF" stroke-width="8" opacity="1"/>
    <path d="M85 15 L95 5" stroke="#00FFFF" stroke-width="8" opacity="1"/>
    <path d="M15 85 L35 65" stroke="#00FFFF" stroke-width="8" opacity="1"/>
    <path d="M85 85 L95 65" stroke="#00FFFF" stroke-width="8" opacity="1"/>
  </g>

  <!-- Center particles with intense glow -->
  <g filter="url(#superGlow)">
    <circle cx="50" cy="35" r="8" fill="#FFFFFF">
      <animate attributeName="opacity" values="1;0.7;1" dur="1.5s" repeatCount="indefinite"/>
    </circle>
    <circle cx="65" cy="45" r="8" fill="#FFFFFF">
      <animate attributeName="opacity" values="0.7;1;0.7" dur="2s" repeatCount="indefinite"/>
    </circle>
    <circle cx="35" cy="50" r="8" fill="#FFFFFF">
      <animate attributeName="opacity" values="0.8;1;0.8" dur="1.8s" repeatCount="indefinite"/>
    </circle>
  </g>

  <!-- Center connections with maximum visibility -->
  <g filter="url(#superGlow)">
    <path d="M50 35 L65 45" stroke="#FFFFFF" stroke-width="5" opacity="0.9">
      <animate attributeName="opacity" values="0.9;0.6;0.9" dur="1.5s" repeatCount="indefinite"/>
    </path>
    <path d="M65 45 L35 50" stroke="#FFFFFF" stroke-width="5" opacity="0.9">
      <animate attributeName="opacity" values="0.6;0.9;0.6" dur="2s" repeatCount="indefinite"/>
    </path>
    <path d="M35 50 L50 35" stroke="#FFFFFF" stroke-width="5" opacity="0.9">
      <animate attributeName="opacity" values="0.7;1;0.7" dur="1.8s" repeatCount="indefinite"/>
    </path>
  </g>
</svg>